# xmcd
#
# Track frame offsets:
#	150
#	18099
#	33164
#	47533
#	61937
#	80334
#	97724
#	116554
#	135435
#	150942
#	169731
#	184057
#	197723
#	216728
#	230419
#	245854
#	263370
#	275400
#	287694
#	302596
#	314399
#	329538
#
# Disc length: 4631 seconds
#
# Revision: 0
# Processed by: cddbd v1.5.2PL0 Copyright (c) Steve Scherf et al.
# Submitted via: EasyCDDAExtractor 8.2.1.1
#
DISCID=24121516
DTITLE=Various Artist - Country Liners Bo 1
DYEAR=1900
DGENRE=
TTITLE0=Kathy Mathea - (Loxe Is) My Last Word
TTITLE1=George Streait - All My Ex's Live In Texas
TTITLE2=Brother Phelps - Anyway The Wind Blows
TTITLE3=The Judds - Big Bag Boogie
TTITLE4=Jessica Andrews - Every Time
TTITLE5=Reba McEntire - Forever Love
TTITLE6=Scooter Lee - Honky Tonk Twist
TTITLE7=Lisa Angelle - I  Wear Your Love (Dance Mix)
TTITLE8=Ronnie Milsap - I Wouldn't Have Missed It For The World
TTITLE9=Kenny Rogers - Dolly Parton - Islands In Thge Stream
TTITLE10=Scooter Lee - Let's Break Up Tomorrow
TTITLE11=Chris Cogle - Rock The Boat
TTITLE12=Ronnie Milsap - Stranger In My House
TTITLE13=Heather Myles - Sweet Little Dangerous
TTITLE14=George Strait - The Best Day
TTITLE15=Scooter Lee - The Hutle
TTITLE16=Derailers - Then She Kissed Me
TTITLE17=Sarah Evans - Wait A Minute
TTITLE18=Delbert McClinton - Why Me
TTITLE19=Alan Jackson - www dot Memory
TTITLE20=Chad Brak - Yes
TTITLE21=Keith Urban - Your Everything
EXTD=
EXTT0=
EXTT1=
EXTT2=
EXTT3=
EXTT4=
EXTT5=
EXTT6=
EXTT7=
EXTT8=
EXTT9=
EXTT10=
EXTT11=
EXTT12=
EXTT13=
EXTT14=
EXTT15=
EXTT16=
EXTT17=
EXTT18=
EXTT19=
EXTT20=
EXTT21=
PLAYORDER=
